<svg width="390" height="337" viewBox="0 0 390 337" fill="none" xmlns="http://www.w3.org/2000/svg">
<rect x="142.572" y="4.58874" width="284.974" height="161.194" rx="36.6018" transform="rotate(58.8716 142.572 4.58874)" fill="white" stroke="#5E9ADB" stroke-width="6.6844"/>
<rect x="88.1255" y="33.7988" width="291.658" height="34.7494" transform="rotate(58.8716 88.1255 33.7988)" fill="#5E9ADB"/>
<rect x="237.823" y="4.58874" width="284.974" height="161.194" rx="36.6018" transform="rotate(58.8716 237.823 4.58874)" fill="#5E9ADB" stroke="white" stroke-width="6.6844"/>
<path d="M199.674 103.945C193.022 108.328 197.374 112.18 201.273 120.661L220.538 152.801L210.238 167.935L206.951 162.947C205.855 161.284 203.786 160.858 202.124 161.954C200.602 162.36 200.867 164.571 201.273 166.092L206.204 173.575L198.134 184.855L195.395 180.697C194.299 179.034 192.23 178.609 191.257 179.847C189.594 180.942 189.168 183.011 190.264 184.674L194.647 191.326L192.559 194.491C188.666 199.441 188.079 205.79 192.056 210.92L235.098 170.53L253.571 198.409L247.229 222.264L251.348 226.705L268.157 207.878L292.089 199.859L289.634 194.323L265.212 190.739L247.229 162.947L301.119 138.46C297.832 133.471 291.219 130.674 285.824 132.44L282.092 133.11L277.709 126.459C276.613 124.796 274.544 124.37 272.882 125.466C271.219 126.562 270.793 128.631 271.889 130.294L274.628 134.451L260.39 137.274L255.46 129.791C254.364 128.128 252.295 127.703 250.632 128.798C248.969 129.894 248.544 131.963 249.781 132.936L253.068 137.925L235.098 141.419L213.906 111.86C209.308 107.463 205.636 99.4203 199.674 103.945Z" fill="white"/>
</svg>
