<svg width="18" height="18" viewBox="0 0 18 18" fill="none" xmlns="http://www.w3.org/2000/svg">
<path d="M16.4785 10.5938H10.6885V16.3336C10.6885 17.2577 9.93277 18.0069 9.00052 18.0069C8.06827 18.0069 7.31254 17.2577 7.31254 16.3336V10.5938H1.52258C0.652999 10.5045 -0.0078125 9.77811 -0.0078125 8.91146C-0.0078125 8.04481 0.652999 7.31839 1.52258 7.22912H7.29439V1.50736C7.38444 0.645316 8.11722 -0.00976562 8.99145 -0.00976562C9.86568 -0.00976562 10.5985 0.645316 10.6885 1.50736V7.22912H16.4785C17.348 7.31839 18.0089 8.04481 18.0089 8.91146C18.0089 9.77811 17.348 10.5045 16.4785 10.5938Z" fill="white"/>
</svg>
